<svg xmlns="http://www.w3.org/2000/svg" viewBox="0 0 550 522"><g fill="none" fill-rule="evenodd"><path d="M-222-198h938v938h-938z"/><g transform="translate(-12)"><path fill="#000" d="M66.523 393.595c15.317 15.894 40.517 17.692 57.99 3.542 18.457-14.945 21.303-42.022 6.357-60.478L80.2 274.087a42.853 42.853 0 0 0-13.677-11.153V133.448c0-36.688 29.986-66.709 66.639-66.709h266.551c36.65 0 66.64 30.021 66.64 66.71v266.84c0 36.69-29.99 66.711-66.64 66.711H133.162c-36.653 0-66.64-30.021-66.64-66.711v-6.694z"/><path fill="#000" d="M147.045 68.701c25.749 16.325-24.708 55.245-55.186 55.245-30.477 0-74.62-84.844-74.62-115.354 0-30.51 93.711 37.227 129.806 60.11"/><path fill="#000" d="M83.446 139.442c-13.653 13.166-60.646 3.942-70.432-6.231-9.787-10.174 53.926-28.065 77.437-36.025"/><rect width="166.516" height="86" x="3.554" y="291.689" fill="#000" rx="43" transform="scale(-1 1) rotate(-51 0 516.694)"/><path fill="#FFF" d="M360.395 299H172.606C135.974 299 106 268.9 106 232.11v-10.219C106 185.102 135.974 155 172.606 155h187.79C397.03 155 427 185.102 427 221.891v10.22C427 268.9 397.03 299 360.395 299"/><path fill="#383838" d="M199.001 259C231 259 231 259 231 228.868 231 210.716 216.672 196 199.001 196 181.328 196 167 210.716 167 228.868 167 259 167 259 199.001 259"/><path fill="#FFFFFE" d="M235 220c0 6.629-5.375 12-12.002 12-6.623 0-11.998-5.371-11.998-12 0-6.624 5.375-12 11.998-12 6.627 0 12.002 5.376 12.002 12"/><path fill="#383838" d="M335 259c32 0 32 0 32-30.132C367 210.716 352.673 196 335 196c-17.673 0-32 14.716-32 32.868C303 259 303 259 335 259"/><path fill="#FFFFFE" d="M372 220c0 6.629-5.372 12-11.998 12-6.63 0-12.002-5.371-12.002-12 0-6.624 5.372-12 12.002-12 6.626 0 11.998 5.376 11.998 12"/><path fill="#FFD600" stroke="#000" stroke-linecap="round" stroke-linejoin="round" stroke-width="30" d="m400.057 359.503 38.718-78.378 13.447 27.234 25.273 51.19 86.487 13.101-21.795 21.074-40.804 39.453 14.557 86.008-26.823-14.093-50.352-26.456-77.412 40.642 14.784-86.164-62.24-61.107 86.16-12.504z"/></g></g></svg>